<svg xmlns="http://www.w3.org/2000/svg" xmlns:xlink="http://www.w3.org/1999/xlink" width="474" height="690.52" viewBox="0 0 474 690.52">
  <defs>
    <clipPath id="clip-path">
      <rect id="Rectángulo_141" data-name="Rectángulo 141" width="329.003" height="329.003" transform="matrix(0.709, -0.705, 0.705, 0.709, 0, 232.095)" fill="#26b1c7" stroke="#26b1c7" stroke-width="0.5"/>
    </clipPath>
  </defs>
  <g id="customersolution_icon" transform="translate(1 0)">
    <g id="Grupo_1701" data-name="Grupo 1701" transform="translate(5.287 0)">
      <path id="Trazado_5349" data-name="Trazado 5349" d="M321.5,453.3l-1.706,0,.773.777c.324-.241.612-.528.933-.772Zm0,0" transform="translate(-66.323 -191.954)" fill="#26b1c7" stroke="#26b1c7" stroke-width="0.5"/>
      <path id="Trazado_5350" data-name="Trazado 5350" d="M309.6,477.245" transform="translate(-65.445 -194.016)" fill="#26b1c7" stroke="#26b1c7" stroke-width="0.5"/>
      <path id="Trazado_5351" data-name="Trazado 5351" d="M357.641,453.385" transform="translate(-69.582 -191.962)" fill="#26b1c7" stroke="#26b1c7" stroke-width="0.5"/>
      <g id="Grupo_1700" data-name="Grupo 1700" transform="translate(0 0)">
        <g id="Grupo_1699" data-name="Grupo 1699" transform="translate(0)" clip-path="url(#clip-path)">
          <path id="Trazado_5352" data-name="Trazado 5352" d="M357.641,453.385" transform="translate(-69.582 -191.962)" fill="#26b1c7" stroke="#26b1c7" stroke-width="0.5"/>
          <path id="Trazado_5353" data-name="Trazado 5353" d="M397.255,434.882l.116-49.32a5.484,5.484,0,0,0-8.762-4.431,21.933,21.933,0,1,1,.082-35.1,5.483,5.483,0,0,0,8.784-4.387l.116-49.319a5.488,5.488,0,0,0-5.471-5.5l-42.822-.105a32.9,32.9,0,1,0-56.963-.143l-42.788-.1a5.486,5.486,0,0,0-5.5,5.47l-.123,42.824a32.9,32.9,0,0,0-46.9,41.052L161.824,392.8a27.412,27.412,0,0,0-16.458,17.718l-18.682,45.747a4.5,4.5,0,0,0-.188.535,16.707,16.707,0,0,1-4.265,7.131L118.5,467.65a5.483,5.483,0,1,0,7.736,7.773l3.732-3.715a27.732,27.732,0,0,0,6.94-11.553l18.679-45.749c.079-.189.145-.382.2-.575a16.645,16.645,0,0,1,10.325-10.957l36.82-17.726c.406.407.745.865,1.155,1.278a32.841,32.841,0,0,0,39.665,5.324l0,13.123-39.9,39.712a5.483,5.483,0,1,0,7.736,7.773L266,398.2a16.45,16.45,0,1,1,23.21,23.318l-47.068,46.847a49.663,49.663,0,0,0-11.97,19.262l-1.436,4.262a38.531,38.531,0,0,1-24.33,24.216l-11.641,3.85a16.482,16.482,0,0,0-6.437,3.963l-5.938,5.911a5.483,5.483,0,0,0,7.736,7.773l5.939-5.911a5.549,5.549,0,0,1,2.127-1.341l11.641-3.849a49.567,49.567,0,0,0,31.281-31.135l1.433-4.262a38.685,38.685,0,0,1,6.262-11.546,38.266,38.266,0,0,0,11.182,27.19,16.451,16.451,0,0,0,23.264.054l22.152-22.049a32.868,32.868,0,0,0,45.539-44.485l42.823.07a5.477,5.477,0,0,0,5.485-5.459ZM265.764,499.014a27.452,27.452,0,0,1,.091-38.773l20.209-20.114,5.928.014a32.806,32.806,0,0,0,3.075,37.445l-21.548,21.446a5.486,5.486,0,0,1-7.754-.018Zm71.16-69.719a5.484,5.484,0,0,0-3.315,9.888,21.933,21.933,0,1,1-26.364-.062,5.484,5.484,0,0,0-3.264-9.9l-6.949-.009a27.417,27.417,0,0,0-38.768-38.777l-3.522,3.506.036-14.215a5.486,5.486,0,0,0-9.89-3.312,21.931,21.931,0,1,1,.065-26.367,5.483,5.483,0,0,0,9.906-3.261L255,297.458l49.334.131a5.486,5.486,0,0,0,3.314-9.89,21.933,21.933,0,0,1,13.259-39.409,22.486,22.486,0,0,1,21.88,21.983,21.925,21.925,0,0,1-8.805,17.487,5.486,5.486,0,0,0,3.265,9.906l49.361.141-.083,34.752a32.9,32.9,0,1,0-.145,62.037L386.3,429.35Zm0,0" transform="translate(-48.852 -173.355)" fill="#26b1c7" stroke="#26b1c7" stroke-width="0.5"/>
        </g>
      </g>
      <path id="Trazado_5354" data-name="Trazado 5354" d="M455.684,504.042l-23.209-23.319a5.483,5.483,0,1,1,7.773-7.736L463.457,496.3a5.484,5.484,0,0,1-7.773,7.737Zm0,0" transform="translate(-75.888 -193.511)" fill="#26b1c7" stroke="#26b1c7" stroke-width="0.5"/>
      <path id="Trazado_5355" data-name="Trazado 5355" d="M476.8,427.452a5.483,5.483,0,0,1,5.318-9.161l31.773,8.6a5.483,5.483,0,0,1-2.862,10.585l-31.773-8.6a5.41,5.41,0,0,1-2.456-1.424Zm0,0" transform="translate(-79.704 -188.924)" fill="#26b1c7" stroke="#26b1c7" stroke-width="0.5"/>
      <path id="Trazado_5356" data-name="Trazado 5356" d="M387.428,556.592a5.389,5.389,0,0,1-1.413-2.463l-8.455-31.813a5.483,5.483,0,1,1,10.6-2.812l8.455,31.814a5.483,5.483,0,0,1-9.186,5.275Zm0,0" transform="translate(-71.28 -197.301)" fill="#26b1c7" stroke="#26b1c7" stroke-width="0.5"/>
      <path id="Trazado_5357" data-name="Trazado 5357" d="M235.584,282.909,212.375,259.59a5.483,5.483,0,1,1,7.773-7.736l23.209,23.318a5.484,5.484,0,0,1-7.773,7.737Zm0,0" transform="translate(-56.936 -174.47)" fill="#26b1c7" stroke="#26b1c7" stroke-width="0.5"/>
      <path id="Trazado_5358" data-name="Trazado 5358" d="M290.454,238.031a5.406,5.406,0,0,1-1.413-2.462l-8.455-31.814a5.483,5.483,0,0,1,10.6-2.812l8.456,31.814a5.482,5.482,0,0,1-9.186,5.274Zm0,0" transform="translate(-62.932 -169.877)" fill="#26b1c7" stroke="#26b1c7" stroke-width="0.5"/>
      <path id="Trazado_5359" data-name="Trazado 5359" d="M158.7,328.985a5.482,5.482,0,0,1,5.317-9.161l31.774,8.6a5.483,5.483,0,1,1-2.862,10.585l-31.774-8.6a5.389,5.389,0,0,1-2.456-1.424Zm0,0" transform="translate(-52.314 -180.445)" fill="#26b1c7" stroke="#26b1c7" stroke-width="0.5"/>
    </g>
    <text id="Customer_Solution" data-name="Customer
Solution" transform="translate(236 540.52)" fill="#26b1c7" font-size="104" font-family="Ubuntu" letter-spacing="0.02em"><tspan x="-236.288" y="0">Customer</tspan><tspan x="-204.256" y="130">Solution</tspan></text>
  </g>
</svg>
