<svg id="facebook-icon" xmlns="http://www.w3.org/2000/svg" width="23.986" height="23.985" viewBox="0 0 23.986 23.985">
  <g id="Grupo_1521" data-name="Grupo 1521" transform="translate(0 0)">
    <path id="Trazado_5278" data-name="Trazado 5278" d="M957.313,353.932a11.993,11.993,0,1,1,11.993-11.992A12.006,12.006,0,0,1,957.313,353.932Zm0-22.7a10.7,10.7,0,1,0,10.7,10.7A10.716,10.716,0,0,0,957.313,331.235Z" transform="translate(-945.32 -329.947)" fill="#fff"/>
  </g>
  <g id="Grupo_1522" data-name="Grupo 1522" transform="translate(8.641 4.805)">
    <path id="Trazado_5279" data-name="Trazado 5279" d="M966.456,348.126v6.951a.181.181,0,0,0,.181.181h2.581a.181.181,0,0,0,.181-.181v-7.064h1.871a.181.181,0,0,0,.18-.166l.18-2.129a.181.181,0,0,0-.18-.2H969.4v-1.51a.641.641,0,0,1,.641-.641h1.443a.181.181,0,0,0,.181-.181v-2.128a.181.181,0,0,0-.181-.181h-2.437a2.589,2.589,0,0,0-2.589,2.589v2.052h-1.291a.181.181,0,0,0-.181.181v2.128a.181.181,0,0,0,.181.181h1.291Z" transform="translate(-964.984 -340.881)" fill="#fff" fill-rule="evenodd"/>
  </g>
</svg>
