<svg id="instagram-icon" xmlns="http://www.w3.org/2000/svg" width="23.829" height="23.829" viewBox="0 0 23.829 23.829">
  <path id="Trazado_5280" data-name="Trazado 5280" d="M1061.318,354.46a11.914,11.914,0,1,1,11.914-11.914A11.928,11.928,0,0,1,1061.318,354.46Zm0-22.7a10.782,10.782,0,1,0,10.782,10.783A10.795,10.795,0,0,0,1061.318,331.763Zm4.017,5.948a.882.882,0,1,0,.882.882A.882.882,0,0,0,1065.335,337.711Zm-3.92,1.131a3.7,3.7,0,1,0,3.7,3.7A3.708,3.708,0,0,0,1061.415,338.842Zm0,6.076a2.372,2.372,0,1,1,2.372-2.372A2.375,2.375,0,0,1,1061.415,344.918Zm7.473-5.45a4.518,4.518,0,0,0-4.518-4.517h-5.962a4.517,4.517,0,0,0-4.517,4.517v5.962a4.517,4.517,0,0,0,4.517,4.517h5.962a4.518,4.518,0,0,0,4.518-4.517Zm-1.415,5.962a3.1,3.1,0,0,1-3.1,3.1h-5.962a3.1,3.1,0,0,1-3.1-3.1v-5.962a3.1,3.1,0,0,1,3.1-3.1h5.962a3.1,3.1,0,0,1,3.1,3.1Z" transform="translate(-1049.403 -330.631)" fill="#fff"/>
</svg>
