<svg xmlns="http://www.w3.org/2000/svg" width="562" height="681.581" viewBox="0 0 562 681.581">
  <g id="latesttechnology_icon" transform="translate(1 -53.821)">
    <text id="Lastest_Technology" data-name="Lastest
Technology" transform="translate(280 585.402)" fill="#26b1c7" font-size="104" font-family="Ubuntu" letter-spacing="0.02em"><tspan x="-177.112" y="0">Lastest</tspan><tspan x="-280.124" y="130">Technology</tspan></text>
    <g id="Grupo_1721" data-name="Grupo 1721" transform="translate(318.442 0) rotate(45)">
      <g id="Grupo_1717" data-name="Grupo 1717" transform="translate(0 0)">
        <g id="Grupo_1726" data-name="Grupo 1726" transform="translate(0 0)">
          <g id="Grupo_1708" data-name="Grupo 1708" transform="translate(40.088 47.069)">
            <path id="Trazado_5362" data-name="Trazado 5362" d="M206.2,97.846l-95.1-95.1a9.372,9.372,0,0,0-13.255,0l-95.1,95.1a9.374,9.374,0,0,0,0,13.256L86.7,195.059c.4-5.392.862-10.779.916-16.191a5.085,5.085,0,0,1,.208-1.4l-72.991-72.99,89.639-89.638,89.637,89.638-68.74,68.74c.118,5.859.912,11.968.772,17.946L206.2,111.1A9.374,9.374,0,0,0,206.2,97.846Z" transform="translate(0 0)" fill="#26b1c7"/>
          </g>
          <g id="Grupo_1709" data-name="Grupo 1709" transform="translate(24.033 174.324)">
            <path id="Trazado_5363" data-name="Trazado 5363" d="M25.535,35.506h0a6.618,6.618,0,0,1-4.68-1.939L1.938,14.65A6.618,6.618,0,0,1,11.3,5.292L25.535,19.529,43.125,1.938a6.618,6.618,0,0,1,9.36,9.359L30.214,33.568A6.624,6.624,0,0,1,25.535,35.506Z" transform="translate(0 0)" fill="#26b1c7"/>
          </g>
          <g id="Grupo_1710" data-name="Grupo 1710" transform="translate(0 153.635)">
            <path id="Trazado_5364" data-name="Trazado 5364" d="M17.921,35.851A17.92,17.92,0,0,1,5.243,5.252h0a17.93,17.93,0,1,1,12.679,30.6Zm0-26.4a8.42,8.42,0,0,0-5.994,2.483h0a8.475,8.475,0,1,0,5.994-2.483Zm-9.336-.86h0Z" transform="translate(0 0)" fill="#26b1c7"/>
          </g>
          <g id="Grupo_1711" data-name="Grupo 1711" transform="translate(78.048 40.574)">
            <path id="Trazado_5365" data-name="Trazado 5365" d="M28.888,54.422a6.6,6.6,0,0,1-4.68-1.939L1.938,30.214a6.618,6.618,0,0,1,0-9.359L20.855,1.938A6.618,6.618,0,0,1,30.213,11.3L15.976,25.535l17.591,17.59a6.618,6.618,0,0,1-4.68,11.3Z" transform="translate(0 0)" fill="#26b1c7"/>
          </g>
          <g id="Grupo_1712" data-name="Grupo 1712" transform="translate(98.392 16.543)">
            <path id="Trazado_5366" data-name="Trazado 5366" d="M17.921,35.843A17.926,17.926,0,1,1,30.6,5.243h0a17.922,17.922,0,0,1-12.679,30.6Zm0-26.394a8.467,8.467,0,1,0,5.994,2.479h0A8.446,8.446,0,0,0,17.921,9.449Z" transform="translate(0 0)" fill="#26b1c7"/>
          </g>
          <g id="Grupo_1713" data-name="Grupo 1713" transform="translate(2.481 73.632)">
            <path id="Trazado_5367" data-name="Trazado 5367" d="M67.977,55.679A6.6,6.6,0,0,1,63.3,53.74L25.534,15.976,11.3,30.214a6.617,6.617,0,1,1-9.358-9.359L20.855,1.938a6.618,6.618,0,0,1,9.359,0L72.656,44.381a6.618,6.618,0,0,1-4.68,11.3Z" transform="translate(0 0)" fill="#26b1c7"/>
          </g>
          <g id="Grupo_1714" data-name="Grupo 1714" transform="translate(198.36 75.569)">
            <path id="Trazado_5368" data-name="Trazado 5368" d="M6.618,35.5a6.617,6.617,0,0,1-4.679-11.3L24.21,1.938a6.618,6.618,0,0,1,9.358,0L52.484,20.854a6.617,6.617,0,1,1-9.358,9.359L28.889,15.976,11.3,33.567A6.6,6.6,0,0,1,6.618,35.5Z" transform="translate(0 0)" fill="#26b1c7"/>
          </g>
          <g id="Grupo_1715" data-name="Grupo 1715" transform="translate(240.964 95.901)">
            <path id="Trazado_5369" data-name="Trazado 5369" d="M17.93,35.859A17.929,17.929,0,0,1,5.252,5.252,17.929,17.929,0,0,1,30.609,30.608h0A17.815,17.815,0,0,1,17.93,35.859Zm9.336-8.594h0ZM17.93,9.454a8.476,8.476,0,1,0,5.993,2.483A8.414,8.414,0,0,0,17.93,9.454Z" transform="translate(0 0)" fill="#26b1c7"/>
          </g>
          <g id="Grupo_1716" data-name="Grupo 1716" transform="translate(164.048 0)">
            <path id="Trazado_5370" data-name="Trazado 5370" d="M6.617,74.595A6.617,6.617,0,0,1,1.939,63.3L39.7,25.535,25.464,11.3a6.618,6.618,0,1,1,9.36-9.359L53.74,20.855a6.618,6.618,0,0,1,0,9.359L11.3,72.657A6.6,6.6,0,0,1,6.617,74.595Z" transform="translate(0)" fill="#26b1c7"/>
          </g>
        </g>
      </g>
      <g id="Grupo_1720" data-name="Grupo 1720" transform="translate(51.098 186.076)">
        <g id="Grupo_1718" data-name="Grupo 1718" transform="translate(0 10.112)">
          <path id="Trazado_5371" data-name="Trazado 5371" d="M37.348,1.466A8.077,8.077,0,0,0,32.755,0Q24.839,23.6,16.922,47.207c-.181.415-.346.836-.506,1.257l.141.015Q9.462,69.207,2.368,89.937a27.554,27.554,0,0,0,.951,24.287l19.343,45.745a4.524,4.524,0,0,0,.249.514,16.792,16.792,0,0,1,2.055,8.094v5.292a5.511,5.511,0,1,0,11.022,0v-5.292a27.867,27.867,0,0,0-3.308-13.136L13.334,109.7c-.08-.19-.169-.374-.266-.553a16.733,16.733,0,0,1-.484-15.125l13.48-38.8a13.893,13.893,0,0,0,.458-2.079L38.291,18.586a13.93,13.93,0,0,0,.333-1.4l1.512-4.442C41.5,8.172,40.347,3.663,37.348,1.466Z" transform="translate(0 0)" fill="#26b1c7" stroke="#26b1c7" stroke-width="0.5"/>
        </g>
        <g id="Grupo_1719" data-name="Grupo 1719" transform="translate(69.057 0)">
          <path id="Trazado_5372" data-name="Trazado 5372" d="M99.272,66.841l-.135-39.3c-.016-.389-.054-.768-.1-1.143L98.98,10.076c-.2-4.766-2.758-8.654-6.309-9.755a8.077,8.077,0,0,0-4.82.111q.2,24.894.4,49.79c-.036.452-.055.9-.069,1.353l.064-.014q-.033,6.842-.066,13.683V95.8a5.514,5.514,0,0,1-5.511,5.511A27.592,27.592,0,0,1,55.114,73.754V29.542A27.557,27.557,0,0,0,0,29.664v77.159a5.511,5.511,0,1,0,11.022,0V29.664a16.534,16.534,0,0,1,33.068,0V96.41A49.925,49.925,0,0,0,49.325,118.6l2.018,4.044a38.724,38.724,0,0,1,0,34.5l-5.512,11.023a16.577,16.577,0,0,0-1.741,7.395v8.422a5.512,5.512,0,0,0,11.023,0V175.56a5.576,5.576,0,0,1,.552-2.464l5.511-11.024a49.82,49.82,0,0,0,0-44.359l-2.02-4.043a38.839,38.839,0,0,1-3.785-12.649,38.463,38.463,0,0,0,27.3,11.314A16.535,16.535,0,0,0,99.2,95.8V66.851Z" transform="translate(0 0)" fill="#26b1c7" stroke="#26b1c7" stroke-width="0.5"/>
        </g>
      </g>
    </g>
  </g>
</svg>
