<svg id="linkedin-icon" xmlns="http://www.w3.org/2000/svg" width="23.945" height="23.944" viewBox="0 0 23.945 23.944">
  <g id="Grupo_1537" data-name="Grupo 1537" transform="translate(0 0)">
    <g id="Grupo_1534" data-name="Grupo 1534">
      <path id="Trazado_5286" data-name="Trazado 5286" d="M863.342,357.58a11.972,11.972,0,1,1,11.972-11.972A11.986,11.986,0,0,1,863.342,357.58Zm0-22.656a10.684,10.684,0,1,0,10.684,10.684A10.7,10.7,0,0,0,863.342,334.924Z" transform="translate(-851.369 -333.636)" fill="#fff"/>
    </g>
    <g id="Grupo_1536" data-name="Grupo 1536" transform="translate(6.271 9.219)">
      <g id="Grupo_1535" data-name="Grupo 1535">
        <path id="Trazado_5287" data-name="Trazado 5287" d="M878.111,358.281v4.471a.2.2,0,0,1-.2.2H875.6a.2.2,0,0,1-.2-.2v-4.157c0-1.094-.391-1.842-1.371-1.842a1.481,1.481,0,0,0-1.389.99,1.855,1.855,0,0,0-.09.66v4.348a.2.2,0,0,1-.2.2h-2.307a.2.2,0,0,1-.2-.2c0-1.107.028-6.479,0-7.741a.2.2,0,0,1,.2-.2h2.3a.2.2,0,0,1,.2.2v.954c-.006.009-.013.018-.018.027h.018v-.027a2.687,2.687,0,0,1,2.44-1.345c1.782,0,3.117,1.164,3.117,3.665Zm-12.27,4.671h2.307a.2.2,0,0,0,.2-.2v-7.744a.2.2,0,0,0-.2-.2h-2.307a.2.2,0,0,0-.2.2v7.744A.2.2,0,0,0,865.841,362.951Z" transform="translate(-865.641 -354.616)" fill="#fff"/>
      </g>
    </g>
  </g>
  <g id="Grupo_1538" data-name="Grupo 1538" transform="translate(6.094 5.475)">
    <ellipse id="Elipse_5" data-name="Elipse 5" cx="1.449" cy="1.449" rx="1.449" ry="1.449" fill="#fff"/>
  </g>
</svg>
