<svg xmlns="http://www.w3.org/2000/svg" xmlns:xlink="http://www.w3.org/1999/xlink" width="622" height="673.001" viewBox="0 0 622 673.001">
  <defs>
    <clipPath id="clip-path">
      <rect id="Rect치ngulo_117" data-name="Rect치ngulo 117" width="317" height="316" transform="translate(0.47 -0.195)" fill="#26b1c7"/>
    </clipPath>
    <clipPath id="clip-path-2">
      <rect id="Rect치ngulo_115" data-name="Rect치ngulo 115" width="318" height="316" transform="translate(0.194 -0.194)" fill="#26b1c7"/>
    </clipPath>
  </defs>
  <g id="professionalexperiences_icon" transform="translate(1 0.195)">
    <text id="Professional_Experience" data-name="Professional
Experience" transform="translate(310 520.806)" fill="#26b1c7" font-size="106" font-family="Ubuntu" letter-spacing="0.02em"><tspan x="-310.209" y="0">Professional</tspan><tspan x="-276.395" y="132">Experience</tspan></text>
    <g id="Grupo_1704" data-name="Grupo 1704" transform="translate(146.806 0)">
      <g id="Grupo_1702" data-name="Grupo 1702" transform="translate(16.725 0.001)">
        <g id="Grupo_1577" data-name="Grupo 1577" transform="translate(0 0)" clip-path="url(#clip-path)">
          <path id="Trazado_5298" data-name="Trazado 5298" d="M297.809,486,263.654,508.59a24.986,24.986,0,0,0-21.5-12.314H211.987c-6.494,0-9.536-4.715-12.583-6.905a62.735,62.735,0,0,0-81.779-.012l-6.586,5.678H47.2a6.2,6.2,0,0,0-6.2,6.2v74.349a6.2,6.2,0,0,0,6.2,6.2h64.327l111.02,18.5a6.189,6.189,0,0,0,4.666-1.1l128.48-93.612a6.2,6.2,0,0,0,1.374-8.634A43.645,43.645,0,0,0,297.809,486ZM222.014,587.63,113.055,569.47a6.276,6.276,0,0,0-1.019-.084H53.392V507.428h59.951c3.758,0,4.829-2.667,12.387-8.7a50.284,50.284,0,0,1,65.557,0c2.6,1.752,8.689,9.933,20.7,9.933h30.162a12.086,12.086,0,1,1,0,24.164H167.8a6.2,6.2,0,0,0,0,12.392h74.352a24.684,24.684,0,0,0,24.776-23.944L304.6,496.367a31.306,31.306,0,0,1,38.313,3.173Zm0,0" transform="translate(-41.162 -283.7)" fill="#26b1c7"/>
        </g>
      </g>
    </g>
    <g id="Grupo_1705" data-name="Grupo 1705" transform="translate(247.965 9.887)">
      <path id="Trazado_5360" data-name="Trazado 5360" d="M165.789,341.087h-10.38a6.938,6.938,0,0,1-6.884-6.116l-1.108-8.692a43.856,43.856,0,0,1-6.366-2.635l-6.921,5.379a6.911,6.911,0,0,1-9.2-.584l-7.3-7.3a6.892,6.892,0,0,1-.566-9.169l5.38-6.927a42.733,42.733,0,0,1-2.637-6.366l-8.711-1.107a6.953,6.953,0,0,1-6.1-6.893V280.3a6.938,6.938,0,0,1,6.116-6.884l8.692-1.108a43.854,43.854,0,0,1,2.635-6.366l-5.374-6.921a6.908,6.908,0,0,1,.588-9.2l7.3-7.3a6.9,6.9,0,0,1,9.169-.566l6.923,5.384a43.589,43.589,0,0,1,6.371-2.637l1.108-8.711a6.937,6.937,0,0,1,6.884-6.1h10.38a6.938,6.938,0,0,1,6.884,6.116l1.108,8.692a43.708,43.708,0,0,1,6.371,2.635l6.923-5.379a6.905,6.905,0,0,1,9.2.588l7.3,7.3a6.892,6.892,0,0,1,.566,9.169l-5.379,6.927a42.862,42.862,0,0,1,2.635,6.366l8.711,1.107a6.945,6.945,0,0,1,6.1,6.889v10.38a6.938,6.938,0,0,1-6.116,6.884l-8.692,1.108a43.841,43.841,0,0,1-2.635,6.366l5.379,6.921a6.9,6.9,0,0,1-.588,9.2l-7.3,7.3a6.887,6.887,0,0,1-9.169.566l-6.927-5.38a42.755,42.755,0,0,1-6.366,2.637l-1.107,8.711a6.946,6.946,0,0,1-6.889,6.1Zm-24.974-22.518a2.353,2.353,0,0,1,1.131.292,38.8,38.8,0,0,0,8.219,3.41,2.312,2.312,0,0,1,1.658,1.932l1.3,10.193a2.343,2.343,0,0,0,2.288,2.057h10.38a2.334,2.334,0,0,0,2.284-2.034l1.3-10.212a2.313,2.313,0,0,1,1.658-1.932,38.89,38.89,0,0,0,8.219-3.409,2.31,2.31,0,0,1,2.549.195l8.108,6.3a2.279,2.279,0,0,0,3.035-.157l7.344-7.343a2.292,2.292,0,0,0,.181-3.059l-6.3-8.108a2.312,2.312,0,0,1-.2-2.547,38.844,38.844,0,0,0,3.41-8.22,2.313,2.313,0,0,1,1.932-1.658l10.193-1.3a2.351,2.351,0,0,0,2.057-2.293V280.3a2.334,2.334,0,0,0-2.034-2.284l-10.212-1.3a2.313,2.313,0,0,1-1.932-1.658,38.894,38.894,0,0,0-3.409-8.219,2.3,2.3,0,0,1,.195-2.548l6.3-8.108a2.272,2.272,0,0,0-.153-3.03l-7.343-7.343a2.281,2.281,0,0,0-3.059-.181l-8.108,6.3a2.322,2.322,0,0,1-2.552.195,38.688,38.688,0,0,0-8.22-3.411,2.312,2.312,0,0,1-1.658-1.932l-1.3-10.193a2.351,2.351,0,0,0-2.293-2.062h-10.38a2.334,2.334,0,0,0-2.284,2.034l-1.3,10.212a2.325,2.325,0,0,1-1.658,1.937,38.7,38.7,0,0,0-8.219,3.4,2.319,2.319,0,0,1-2.553-.19l-8.108-6.3a2.272,2.272,0,0,0-3.03.153l-7.344,7.348a2.291,2.291,0,0,0-.181,3.058l6.3,8.108a2.314,2.314,0,0,1,.2,2.548,38.582,38.582,0,0,0-3.41,8.219,2.312,2.312,0,0,1-1.932,1.658l-10.193,1.3a2.342,2.342,0,0,0-2.057,2.288v10.38a2.334,2.334,0,0,0,2.034,2.284l10.212,1.3a2.313,2.313,0,0,1,1.932,1.658,38.893,38.893,0,0,0,3.409,8.219,2.3,2.3,0,0,1-.195,2.548l-6.3,8.108a2.272,2.272,0,0,0,.153,3.03l7.343,7.343a2.291,2.291,0,0,0,3.059.181l8.108-6.3a2.388,2.388,0,0,1,1.426-.482Zm0,0" transform="translate(-105 -229.89)" fill="#26b1c7" stroke="#26b1c7" stroke-width="1"/>
      <path id="Trazado_5361" data-name="Trazado 5361" d="M240.166,388.222a23.166,23.166,0,1,1,23.166-23.166,23.192,23.192,0,0,1-23.166,23.166Zm0-41.7A18.533,18.533,0,1,0,258.7,365.056a18.551,18.551,0,0,0-18.533-18.533Zm0,0" transform="translate(-184.567 -309.458)" fill="#26b1c7" stroke="#26b1c7" stroke-width="1"/>
    </g>
    <g id="Grupo_1706" data-name="Grupo 1706" transform="translate(353.71 87.323)">
      <path id="Trazado_5360-2" data-name="Trazado 5360" d="M152.36,316.523h-8.087a5.405,5.405,0,0,1-5.363-4.765l-.863-6.772a34.167,34.167,0,0,1-4.96-2.053l-5.392,4.19a5.385,5.385,0,0,1-7.166-.455l-5.685-5.685a5.369,5.369,0,0,1-.441-7.144l4.191-5.4a33.3,33.3,0,0,1-2.054-4.96l-6.787-.863A5.417,5.417,0,0,1,105,277.25v-8.087a5.405,5.405,0,0,1,4.765-5.363l6.772-.863a34.155,34.155,0,0,1,2.053-4.96l-4.187-5.392a5.382,5.382,0,0,1,.458-7.169l5.685-5.685a5.373,5.373,0,0,1,7.144-.441l5.393,4.2a33.984,33.984,0,0,1,4.963-2.054l.863-6.787a5.4,5.4,0,0,1,5.363-4.754h8.087a5.405,5.405,0,0,1,5.363,4.765l.863,6.772a34.064,34.064,0,0,1,4.963,2.053l5.393-4.19a5.38,5.38,0,0,1,7.165.458l5.685,5.685a5.369,5.369,0,0,1,.441,7.144l-4.19,5.4a33.382,33.382,0,0,1,2.053,4.96l6.787.863a5.411,5.411,0,0,1,4.75,5.367v8.087a5.405,5.405,0,0,1-4.765,5.363l-6.772.863a34.15,34.15,0,0,1-2.053,4.96l4.19,5.393a5.378,5.378,0,0,1-.458,7.166l-5.685,5.685a5.366,5.366,0,0,1-7.144.441l-5.4-4.191a33.314,33.314,0,0,1-4.96,2.054l-.863,6.787a5.411,5.411,0,0,1-5.367,4.754ZM132.9,298.98a1.834,1.834,0,0,1,.881.227,30.226,30.226,0,0,0,6.4,2.657,1.8,1.8,0,0,1,1.292,1.505l1.011,7.941a1.825,1.825,0,0,0,1.783,1.6h8.087a1.819,1.819,0,0,0,1.779-1.585l1.014-7.956a1.8,1.8,0,0,1,1.292-1.505,30.3,30.3,0,0,0,6.4-2.656,1.8,1.8,0,0,1,1.986.152l6.317,4.909a1.775,1.775,0,0,0,2.364-.123l5.721-5.721a1.785,1.785,0,0,0,.141-2.383l-4.909-6.317a1.8,1.8,0,0,1-.152-1.984,30.264,30.264,0,0,0,2.657-6.4,1.8,1.8,0,0,1,1.505-1.292l7.941-1.011a1.831,1.831,0,0,0,1.6-1.786v-8.087a1.818,1.818,0,0,0-1.584-1.779l-7.956-1.014a1.8,1.8,0,0,1-1.505-1.292,30.3,30.3,0,0,0-2.656-6.4,1.794,1.794,0,0,1,.152-1.986l4.909-6.317a1.77,1.77,0,0,0-.119-2.361l-5.721-5.721a1.777,1.777,0,0,0-2.383-.141l-6.317,4.91a1.809,1.809,0,0,1-1.988.152,30.139,30.139,0,0,0-6.4-2.657,1.8,1.8,0,0,1-1.292-1.505l-1.011-7.941a1.832,1.832,0,0,0-1.786-1.607h-8.087a1.818,1.818,0,0,0-1.779,1.585l-1.014,7.956a1.811,1.811,0,0,1-1.292,1.509,30.155,30.155,0,0,0-6.4,2.652,1.806,1.806,0,0,1-1.989-.148l-6.317-4.909a1.77,1.77,0,0,0-2.361.119l-5.721,5.725a1.785,1.785,0,0,0-.141,2.383l4.909,6.317a1.8,1.8,0,0,1,.152,1.986,30.053,30.053,0,0,0-2.657,6.4,1.8,1.8,0,0,1-1.505,1.292l-7.941,1.011a1.825,1.825,0,0,0-1.6,1.783v8.087a1.819,1.819,0,0,0,1.584,1.779l7.956,1.014a1.8,1.8,0,0,1,1.505,1.292,30.3,30.3,0,0,0,2.656,6.4,1.794,1.794,0,0,1-.152,1.986l-4.909,6.317a1.77,1.77,0,0,0,.119,2.361l5.721,5.721a1.784,1.784,0,0,0,2.383.141l6.317-4.91a1.86,1.86,0,0,1,1.111-.375Zm0,0" transform="translate(-105 -229.89)" fill="#26b1c7" stroke="#26b1c7" stroke-width="1"/>
      <path id="Trazado_5361-2" data-name="Trazado 5361" d="M235.049,377.987A18.049,18.049,0,1,1,253.1,359.939a18.069,18.069,0,0,1-18.049,18.048Zm0-32.487a14.439,14.439,0,1,0,14.439,14.439A14.453,14.453,0,0,0,235.049,345.5Zm0,0" transform="translate(-191.732 -316.622)" fill="#26b1c7" stroke="#26b1c7" stroke-width="1"/>
    </g>
    <g id="Grupo_1707" data-name="Grupo 1707" transform="translate(163.369 92.61)">
      <path id="Trazado_5360-3" data-name="Trazado 5360" d="M152.36,316.523h-8.087a5.405,5.405,0,0,1-5.363-4.765l-.863-6.772a34.167,34.167,0,0,1-4.96-2.053l-5.392,4.19a5.385,5.385,0,0,1-7.166-.455l-5.685-5.685a5.369,5.369,0,0,1-.441-7.144l4.191-5.4a33.3,33.3,0,0,1-2.054-4.96l-6.787-.863A5.417,5.417,0,0,1,105,277.25v-8.087a5.405,5.405,0,0,1,4.765-5.363l6.772-.863a34.155,34.155,0,0,1,2.053-4.96l-4.187-5.392a5.382,5.382,0,0,1,.458-7.169l5.685-5.685a5.373,5.373,0,0,1,7.144-.441l5.393,4.2a33.984,33.984,0,0,1,4.963-2.054l.863-6.787a5.4,5.4,0,0,1,5.363-4.754h8.087a5.405,5.405,0,0,1,5.363,4.765l.863,6.772a34.064,34.064,0,0,1,4.963,2.053l5.393-4.19a5.38,5.38,0,0,1,7.165.458l5.685,5.685a5.369,5.369,0,0,1,.441,7.144l-4.19,5.4a33.382,33.382,0,0,1,2.053,4.96l6.787.863a5.411,5.411,0,0,1,4.75,5.367v8.087a5.405,5.405,0,0,1-4.765,5.363l-6.772.863a34.15,34.15,0,0,1-2.053,4.96l4.19,5.393a5.378,5.378,0,0,1-.458,7.166l-5.685,5.685a5.366,5.366,0,0,1-7.144.441l-5.4-4.191a33.314,33.314,0,0,1-4.96,2.054l-.863,6.787a5.411,5.411,0,0,1-5.367,4.754ZM132.9,298.98a1.834,1.834,0,0,1,.881.227,30.226,30.226,0,0,0,6.4,2.657,1.8,1.8,0,0,1,1.292,1.505l1.011,7.941a1.825,1.825,0,0,0,1.783,1.6h8.087a1.819,1.819,0,0,0,1.779-1.585l1.014-7.956a1.8,1.8,0,0,1,1.292-1.505,30.3,30.3,0,0,0,6.4-2.656,1.8,1.8,0,0,1,1.986.152l6.317,4.909a1.775,1.775,0,0,0,2.364-.123l5.721-5.721a1.785,1.785,0,0,0,.141-2.383l-4.909-6.317a1.8,1.8,0,0,1-.152-1.984,30.264,30.264,0,0,0,2.657-6.4,1.8,1.8,0,0,1,1.505-1.292l7.941-1.011a1.831,1.831,0,0,0,1.6-1.786v-8.087a1.818,1.818,0,0,0-1.584-1.779l-7.956-1.014a1.8,1.8,0,0,1-1.505-1.292,30.3,30.3,0,0,0-2.656-6.4,1.794,1.794,0,0,1,.152-1.986l4.909-6.317a1.77,1.77,0,0,0-.119-2.361l-5.721-5.721a1.777,1.777,0,0,0-2.383-.141l-6.317,4.91a1.809,1.809,0,0,1-1.988.152,30.139,30.139,0,0,0-6.4-2.657,1.8,1.8,0,0,1-1.292-1.505l-1.011-7.941a1.832,1.832,0,0,0-1.786-1.607h-8.087a1.818,1.818,0,0,0-1.779,1.585l-1.014,7.956a1.811,1.811,0,0,1-1.292,1.509,30.155,30.155,0,0,0-6.4,2.652,1.806,1.806,0,0,1-1.989-.148l-6.317-4.909a1.77,1.77,0,0,0-2.361.119l-5.721,5.725a1.785,1.785,0,0,0-.141,2.383l4.909,6.317a1.8,1.8,0,0,1,.152,1.986,30.053,30.053,0,0,0-2.657,6.4,1.8,1.8,0,0,1-1.505,1.292l-7.941,1.011a1.825,1.825,0,0,0-1.6,1.783v8.087a1.819,1.819,0,0,0,1.584,1.779l7.956,1.014a1.8,1.8,0,0,1,1.505,1.292,30.3,30.3,0,0,0,2.656,6.4,1.794,1.794,0,0,1-.152,1.986l-4.909,6.317a1.77,1.77,0,0,0,.119,2.361l5.721,5.721a1.784,1.784,0,0,0,2.383.141l6.317-4.91a1.86,1.86,0,0,1,1.111-.375Zm0,0" transform="translate(-105 -229.89)" fill="#26b1c7" stroke="#26b1c7" stroke-width="1"/>
      <path id="Trazado_5361-3" data-name="Trazado 5361" d="M235.049,377.987A18.049,18.049,0,1,1,253.1,359.939a18.069,18.069,0,0,1-18.049,18.048Zm0-32.487a14.439,14.439,0,1,0,14.439,14.439A14.453,14.453,0,0,0,235.049,345.5Zm0,0" transform="translate(-191.732 -316.622)" fill="#26b1c7" stroke="#26b1c7" stroke-width="1"/>
    </g>
  </g>
</svg>
