<svg xmlns="http://www.w3.org/2000/svg" width="56.946" height="63.926" viewBox="0 0 56.946 63.926">
  <g id="question_icon" transform="translate(0 0)">
    <g id="Unión_4" data-name="Unión 4" transform="translate(40.414 63.926) rotate(180)" fill="#26b1c7">
      <path d="M 35.41410064697266 40.32649993896484 L 5.000400543212891 40.32649993896484 C 3.621670484542847 40.32649993896484 2.500000476837158 39.20523071289063 2.500000476837158 37.82699966430664 L 2.500000476837158 11.51460075378418 C 2.500000476837158 10.13587093353271 3.621670484542847 9.014200210571289 5.000400543212891 9.014200210571289 L 6.813900470733643 9.014200210571289 L 9.313900947570801 9.014200210571289 L 9.313900947570801 6.514200687408447 L 9.313900947570801 4.06879711151123 L 16.29648780822754 8.272622108459473 L 16.77019119262695 9.014200210571289 L 18.13976097106934 9.014200210571289 L 35.41410064697266 9.014200210571289 C 36.79283142089844 9.014200210571289 37.91450119018555 10.13587093353271 37.91450119018555 11.51460075378418 L 37.91450119018555 37.82699966430664 C 37.91450119018555 39.20523071289063 36.79283142089844 40.32649993896484 35.41410064697266 40.32649993896484 Z" stroke="none"/>
      <path d="M 35.41410064697266 37.82649993896484 C 35.41423797607422 37.82649993896484 35.41436767578125 37.82649993896484 35.41450119018555 37.82699966430664 L 35.41450119018555 11.51460075378418 C 35.41450119018555 11.51454544067383 35.41450119018555 11.51449203491211 35.41450119018555 11.51443767547607 C 35.41442108154297 11.51435852050781 35.41434478759766 11.51427936553955 35.41426467895508 11.51420116424561 C 35.41421127319336 11.51420116424561 35.41415405273438 11.51420021057129 35.41410064697266 11.51420021057129 L 18.13976097106934 11.51420021057129 L 15.40062046051025 11.51420021057129 L 14.50505256652832 10.11220550537109 L 11.8139009475708 8.492015838623047 L 11.8139009475708 11.51420021057129 L 6.813900470733643 11.51420021057129 L 5.000400543212891 11.51420021057129 C 5.000345706939697 11.51420021057129 5.000290870666504 11.51420116424561 5.000236511230469 11.51420116424561 C 5.000157356262207 11.51427936553955 5.000079154968262 11.51435852050781 5.000000953674316 11.51443767547607 C 5.000000476837158 11.51449203491211 5.000000476837158 11.51454544067383 5.000000476837158 11.51460075378418 L 5.000000476837158 37.82649993896484 C 5.000131607055664 37.82649993896484 5.000265121459961 37.82649993896484 5.000400543212891 37.82649993896484 L 35.41410064697266 37.82649993896484 M 35.41410064697266 42.82649993896484 L 5.000400543212891 42.82649993896484 C 2.238300561904907 42.82649993896484 5.950927857156785e-07 40.58819961547852 5.950927857156785e-07 37.82699966430664 L 5.950927857156785e-07 11.51460075378418 C 5.950927857156785e-07 8.753400802612305 2.238300561904907 6.514200687408447 5.000400543212891 6.514200687408447 L 6.813900470733643 6.514200687408447 L 6.813900470733643 0.405000627040863 C 6.813900470733643 0.166766494512558 7.032393455505371 5.331481952453032e-05 7.26720142364502 5.331481952453032e-05 C 7.351733684539795 5.331481952453032e-05 7.438367366790771 0.02165291458368301 7.517700672149658 0.06930062174797058 L 18 6.380100727081299 C 18.06030082702637 6.416480541229248 18.10684967041016 6.462680816650391 18.13976097106934 6.514200687408447 L 35.41410064697266 6.514200687408447 C 38.17620086669922 6.514200687408447 40.41450119018555 8.753400802612305 40.41450119018555 11.51460075378418 L 40.41450119018555 37.82699966430664 C 40.41450119018555 40.58819961547852 38.17620086669922 42.82649993896484 35.41410064697266 42.82649993896484 Z" stroke="none" fill="#fff"/>
    </g>
    <g id="Unión_3" data-name="Unión 3" transform="translate(56.945 42.827) rotate(180)" fill="#26b1c7">
      <path d="M 35.41410064697266 40.32649993896484 L 5.000400543212891 40.32649993896484 C 3.621670484542847 40.32649993896484 2.500000476837158 39.20523071289063 2.500000476837158 37.82699966430664 L 2.500000476837158 11.51460075378418 C 2.500000476837158 10.13587093353271 3.621670484542847 9.014200210571289 5.000400543212891 9.014200210571289 L 6.813900470733643 9.014200210571289 L 9.313900947570801 9.014200210571289 L 9.313900947570801 6.514200687408447 L 9.313900947570801 4.06879711151123 L 16.29648780822754 8.272622108459473 L 16.77019119262695 9.014200210571289 L 18.13976097106934 9.014200210571289 L 35.41410064697266 9.014200210571289 C 36.79283142089844 9.014200210571289 37.91450119018555 10.13587093353271 37.91450119018555 11.51460075378418 L 37.91450119018555 37.82699966430664 C 37.91450119018555 39.20523071289063 36.79283142089844 40.32649993896484 35.41410064697266 40.32649993896484 Z" stroke="none"/>
      <path d="M 35.41410064697266 37.82649993896484 C 35.41423797607422 37.82649993896484 35.41436767578125 37.82649993896484 35.41450119018555 37.82699966430664 L 35.41450119018555 11.51460075378418 C 35.41450119018555 11.51454544067383 35.41450119018555 11.51449203491211 35.41450119018555 11.51443767547607 C 35.41442108154297 11.51435852050781 35.41434478759766 11.51427936553955 35.41426467895508 11.51420116424561 C 35.41421127319336 11.51420116424561 35.41415405273438 11.51420021057129 35.41410064697266 11.51420021057129 L 18.13976097106934 11.51420021057129 L 15.40062046051025 11.51420021057129 L 14.50505256652832 10.11220550537109 L 11.8139009475708 8.492015838623047 L 11.8139009475708 11.51420021057129 L 6.813900470733643 11.51420021057129 L 5.000400543212891 11.51420021057129 C 5.000345706939697 11.51420021057129 5.000290870666504 11.51420116424561 5.000236511230469 11.51420116424561 C 5.000157356262207 11.51427936553955 5.000079154968262 11.51435852050781 5.000000953674316 11.51443767547607 C 5.000000476837158 11.51449203491211 5.000000476837158 11.51454544067383 5.000000476837158 11.51460075378418 L 5.000000476837158 37.82649993896484 C 5.000131607055664 37.82649993896484 5.000265121459961 37.82649993896484 5.000400543212891 37.82649993896484 L 35.41410064697266 37.82649993896484 M 35.41410064697266 42.82649993896484 L 5.000400543212891 42.82649993896484 C 2.238300561904907 42.82649993896484 5.950927857156785e-07 40.58819961547852 5.950927857156785e-07 37.82699966430664 L 5.950927857156785e-07 11.51460075378418 C 5.950927857156785e-07 8.753400802612305 2.238300561904907 6.514200687408447 5.000400543212891 6.514200687408447 L 6.813900470733643 6.514200687408447 L 6.813900470733643 0.405000627040863 C 6.813900470733643 0.166766494512558 7.032393455505371 5.331481952453032e-05 7.26720142364502 5.331481952453032e-05 C 7.351733684539795 5.331481952453032e-05 7.438367366790771 0.02165291458368301 7.517700672149658 0.06930062174797058 L 18 6.380100727081299 C 18.06030082702637 6.416480541229248 18.10684967041016 6.462680816650391 18.13976097106934 6.514200687408447 L 35.41410064697266 6.514200687408447 C 38.17620086669922 6.514200687408447 40.41450119018555 8.753400802612305 40.41450119018555 11.51460075378418 L 40.41450119018555 37.82699966430664 C 40.41450119018555 40.58819961547852 38.17620086669922 42.82649993896484 35.41410064697266 42.82649993896484 Z" stroke="none" fill="#fff"/>
    </g>
    <text id="_" data-name="?" transform="translate(30.811 24.223)" fill="#fff" font-size="23" font-family="Ubuntu-Bold, Ubuntu" font-weight="700" letter-spacing="0.05em"><tspan x="0" y="0">?</tspan></text>
    <text id="_2" data-name="…" transform="translate(6.613 46.266)" fill="#fff" font-size="25" font-family="Ubuntu-Bold, Ubuntu" font-weight="700" letter-spacing="0.05em"><tspan x="0" y="0">…</tspan></text>
  </g>
</svg>
