<svg id="whatsapp-icon" xmlns="http://www.w3.org/2000/svg" width="23.986" height="23.985" viewBox="0 0 23.986 23.985">
  <g id="Grupo_1529" data-name="Grupo 1529" transform="translate(0 0)">
    <path id="Trazado_5283" data-name="Trazado 5283" d="M1272.313,349.414a11.993,11.993,0,1,1,11.993-11.993A12.007,12.007,0,0,1,1272.313,349.414Zm0-22.7a10.7,10.7,0,1,0,10.7,10.7A10.717,10.717,0,0,0,1272.313,326.717Z" transform="translate(-1260.32 -325.429)" fill="#fff"/>
  </g>
  <g id="Grupo_1532" data-name="Grupo 1532" transform="translate(5.318 4.186)">
    <g id="Grupo_1530" data-name="Grupo 1530">
      <path id="Trazado_5284" data-name="Trazado 5284" d="M1279.664,334.955a7.24,7.24,0,0,0-6.084,11.165l-1.1,2.422a.632.632,0,0,0,.576.894.641.641,0,0,0,.167-.022l3.031-.831a7.24,7.24,0,1,0,3.41-13.627Zm0,13.217a5.972,5.972,0,0,1-3.009-.813.631.631,0,0,0-.319-.087.638.638,0,0,0-.167.022l-1.98.544.689-1.519a.632.632,0,0,0-.063-.631,5.975,5.975,0,1,1,4.849,2.484Z" transform="translate(-1272.423 -334.955)" fill="#fff" fill-rule="evenodd"/>
    </g>
    <g id="Grupo_1531" data-name="Grupo 1531" transform="translate(3.722 3.934)">
      <path id="Trazado_5285" data-name="Trazado 5285" d="M1287.2,348.3a1.238,1.238,0,0,0-1.055-.238c-.274.112-.449.541-.626.76a.262.262,0,0,1-.34.073,4.776,4.776,0,0,1-2.385-2.042.292.292,0,0,1,.037-.4,1.619,1.619,0,0,0,.433-.7,1.541,1.541,0,0,0-.194-.833,1.974,1.974,0,0,0-.615-.926.842.842,0,0,0-.914.136,1.856,1.856,0,0,0-.644,1.471,2.078,2.078,0,0,0,.058.467,3.87,3.87,0,0,0,.448,1.032,8.076,8.076,0,0,0,.468.711,7.215,7.215,0,0,0,2.027,1.882,6.129,6.129,0,0,0,1.264.6,2.81,2.81,0,0,0,1.472.232,1.782,1.782,0,0,0,1.334-.993.865.865,0,0,0,.062-.507C1287.95,348.675,1287.478,348.468,1287.2,348.3Z" transform="translate(-1280.893 -343.908)" fill="#fff" fill-rule="evenodd"/>
    </g>
  </g>
</svg>
