<svg id="youtube-icon" xmlns="http://www.w3.org/2000/svg" width="23.985" height="23.986" viewBox="0 0 23.985 23.986">
  <g id="Grupo_1525" data-name="Grupo 1525" transform="translate(0 0)">
    <path id="Trazado_5281" data-name="Trazado 5281" d="M1165.218,356.7a11.993,11.993,0,1,1,11.993-11.993A12.006,12.006,0,0,1,1165.218,356.7Zm0-22.7a10.7,10.7,0,1,0,10.7,10.7A10.716,10.716,0,0,0,1165.218,334.006Z" transform="translate(-1153.225 -332.718)" fill="#fff"/>
  </g>
  <g id="Grupo_1527" data-name="Grupo 1527" transform="translate(5.026 7.094)">
    <g id="Grupo_1526" data-name="Grupo 1526">
      <path id="Trazado_5282" data-name="Trazado 5282" d="M1178.81,351.943a3.08,3.08,0,0,0-3.08-3.08h-7.988a3.08,3.08,0,0,0-3.08,3.08v3.744a3.08,3.08,0,0,0,3.08,3.08h7.988a3.08,3.08,0,0,0,3.08-3.08ZM1173.77,354l-3.186,1.747c-.139.075-.263-.025-.263-.183v-3.586c0-.159.128-.259.267-.181l3.208,1.839A.209.209,0,0,1,1173.77,354Z" transform="translate(-1164.662 -348.863)" fill="#fff"/>
    </g>
  </g>
</svg>
