<svg xmlns="http://www.w3.org/2000/svg" xmlns:xlink="http://www.w3.org/1999/xlink" width="751.13" height="383.67" viewBox="0 0 751.13 383.67">
  <defs>
    <clipPath id="clip-path">
      <rect id="Rect치ngulo_233" data-name="Rect치ngulo 233" width="200" height="200" transform="translate(-2769 -6056)" fill="#fff"/>
    </clipPath>
  </defs>
  <g id="_10-outdoor-entertainment-icon" data-name="10-outdoor-entertainment-icon" transform="translate(2857 6148)">
    <g id="Trazado_5390" data-name="Trazado 5390" transform="translate(-2857 -6148)" fill="none">
      <path d="M188.469,0C292.558,0,376.939,85.887,376.939,191.835S292.558,383.67,188.469,383.67,0,297.783,0,191.835,84.381,0,188.469,0Z" stroke="none"/>
      <path d="M 188.4694366455078 19.99996948242188 C 95.57504272460938 19.99996948242188 19.99996948242188 97.0848388671875 19.99996948242188 191.8349609375 C 19.99996948242188 286.5850830078125 95.57504272460938 363.6698913574219 188.4694366455078 363.6698913574219 C 281.36376953125 363.6698913574219 356.9388427734375 286.5850830078125 356.9388427734375 191.8349609375 C 356.9388427734375 97.0848388671875 281.36376953125 19.99996948242188 188.4694366455078 19.99996948242188 M 188.4694366455078 -3.0517578125e-05 C 292.5582275390625 -3.0517578125e-05 376.9388427734375 85.88742065429688 376.9388427734375 191.8349609375 C 376.9388427734375 297.7825012207031 292.5582275390625 383.6698913574219 188.4694366455078 383.6698913574219 C 84.38064575195313 383.6698913574219 -3.0517578125e-05 297.7825012207031 -3.0517578125e-05 191.8349609375 C -3.0517578125e-05 85.88742065429688 84.38064575195313 -3.0517578125e-05 188.4694366455078 -3.0517578125e-05 Z" stroke="none" fill="#fff"/>
    </g>
    <g id="Enmascarar_grupo_16" data-name="Enmascarar grupo 16" transform="translate(0)" clip-path="url(#clip-path)">
      <g id="_10-outdoor-entertainment-icon-2" data-name="10-outdoor-entertainment-icon" transform="translate(-2768.959 -6038.406)">
        <g id="Grupo_1649" data-name="Grupo 1649">
          <g id="Fase_Iconos" data-name="Fase Iconos">
            <g id="Grupo_70" data-name="Grupo 70">
              <g id="Grupo_69" data-name="Grupo 69">
                <path id="Trazado_39" data-name="Trazado 39" d="M-3565.038-3718.576h-26.923l-.1-38.327-.11-45.272,9.979-7.633,55.059-42.071,25.616,19.615,17.116,13.076c6.132-1.535,12.278-2.67,18.224-3.565l-60.95-46.683-78.809,60.206q.124,52.306.254,104.611h40.275Q-3565.2-3711.563-3565.038-3718.576Z" transform="translate(3605.891 3869.395)" fill="#fff"/>
              </g>
            </g>
          </g>
        </g>
        <g id="Grupo_1678" data-name="Grupo 1678" transform="translate(55.354 59.03)">
          <g id="Grupo_1642" data-name="Grupo 1642">
            <g id="Grupo_1640" data-name="Grupo 1640" transform="translate(128.809 66.339)">
              <path id="Trazado_5325" data-name="Trazado 5325" d="M3005.651,2408.053h-7.894a3.95,3.95,0,0,0-3.951,3.95v19.739a3.95,3.95,0,0,0,3.951,3.95h1.975v7.894h-1.975a1.975,1.975,0,1,0,0,3.95h7.894a1.975,1.975,0,0,0,0-3.95h-1.975v-7.894h1.975a3.95,3.95,0,0,0,3.95-3.95V2412A3.95,3.95,0,0,0,3005.651,2408.053Zm0,23.682h-7.894V2412h7.894Zm0,0" transform="translate(-2993.806 -2408.052)" fill="#fff"/>
            </g>
            <g id="Grupo_1641" data-name="Grupo 1641" transform="translate(0 66.339)">
              <path id="Trazado_5325-2" data-name="Trazado 5325" d="M3005.651,2408.053h-7.894a3.95,3.95,0,0,0-3.951,3.95v19.739a3.95,3.95,0,0,0,3.951,3.95h1.975v7.894h-1.975a1.975,1.975,0,1,0,0,3.95h7.894a1.975,1.975,0,0,0,0-3.95h-1.975v-7.894h1.975a3.95,3.95,0,0,0,3.95-3.95V2412A3.95,3.95,0,0,0,3005.651,2408.053Zm0,23.682h-7.894V2412h7.894Zm0,0" transform="translate(-2993.806 -2408.052)" fill="#fff"/>
            </g>
            <g id="Grupo_1639" data-name="Grupo 1639" transform="translate(57.35)">
              <path id="Trazado_5337" data-name="Trazado 5337" d="M3.95,1.975A1.975,1.975,0,1,1,1.975,0,1.975,1.975,0,0,1,3.95,1.975Zm0,0" transform="translate(13.187 10.234) rotate(-90)" fill="#fff"/>
              <path id="Trazado_5338" data-name="Trazado 5338" d="M3.95,1.975A1.975,1.975,0,1,1,1.975,0,1.975,1.975,0,0,1,3.95,1.975Zm0,0" transform="translate(7.268 10.234) rotate(-90)" fill="#fff"/>
              <path id="Trazado_5336" data-name="Trazado 5336" d="M3.95,1.975A1.975,1.975,0,1,1,1.975,0,1.975,1.975,0,0,1,3.95,1.975Zm0,0" transform="translate(19.112 10.234) rotate(-90)" fill="#fff"/>
              <path id="Trazado_5329" data-name="Trazado 5329" d="M1759.223,1680.551h21.149a4.129,4.129,0,0,0,4.233-3.95v-7.894a4.129,4.129,0,0,0-4.233-3.95h-21.149a4.129,4.129,0,0,0-4.233,3.95v7.894a4.129,4.129,0,0,0,4.233,3.95Zm0-11.844h21.149v7.9h-21.149Zm0,0" transform="translate(-1754.99 -1664.763)" fill="#fff"/>
            </g>
            <path id="Trazado_5339" data-name="Trazado 5339" d="M3121.638,2657.791a1.975,1.975,0,1,1-1.975-1.975,1.975,1.975,0,0,1,1.975,1.975Zm0,0" transform="translate(-2982.953 -2577.633)" fill="#fff"/>
            <path id="Trazado_5342" data-name="Trazado 5342" d="M3121.638,2657.791a1.975,1.975,0,1,1-1.975-1.975,1.975,1.975,0,0,1,1.975,1.975Zm0,0" transform="translate(-3111.769 -2577.633)" fill="#fff"/>
            <path id="Trazado_5340" data-name="Trazado 5340" d="M3121.638,2533.909a1.975,1.975,0,1,1-1.975-1.975,1.975,1.975,0,0,1,1.975,1.975Zm0,0" transform="translate(-2982.953 -2459.677)" fill="#fff"/>
            <path id="Trazado_5343" data-name="Trazado 5343" d="M3121.638,2533.909a1.975,1.975,0,1,1-1.975-1.975,1.975,1.975,0,0,1,1.975,1.975Zm0,0" transform="translate(-3111.769 -2459.677)" fill="#fff"/>
            <path id="Trazado_5341" data-name="Trazado 5341" d="M3121.638,2781.673a1.975,1.975,0,1,1-1.975-1.975,1.975,1.975,0,0,1,1.975,1.975Zm0,0" transform="translate(-2982.953 -2695.596)" fill="#fff"/>
            <path id="Trazado_5344" data-name="Trazado 5344" d="M3121.638,2781.673a1.975,1.975,0,1,1-1.975-1.975,1.975,1.975,0,0,1,1.975,1.975Zm0,0" transform="translate(-3111.769 -2695.596)" fill="#fff"/>
          </g>
          <g id="Grupo_1650" data-name="Grupo 1650" transform="translate(23.448 23.861)">
            <path id="Trazado_5345" data-name="Trazado 5345" d="M1138.032,2099.03a494.432,494.432,0,0,1,93.517,0h.213a2.237,2.237,0,0,0,2.237-2.237v-58.156a2.236,2.236,0,0,0-2.45-2.23,494.472,494.472,0,0,1-93.517,0,2.237,2.237,0,0,0-2.45,2.23v58.156a2.237,2.237,0,0,0,2.45,2.23Zm2.023-57.928a499.218,499.218,0,0,0,89.47,0v53.249c-7.887-.688-24.776-1.611-24.776-1.611s-12.953-.4-19.959-.4c-14.942,0-29.883.688-44.735,2.01Zm0,0" transform="translate(-1135.582 -2036.408)" fill="#fff"/>
            <path id="Trazado_5346" data-name="Trazado 5346" d="M1901.239,2419.236a2.237,2.237,0,0,0-1.239-2l-17.894-8.947a2.237,2.237,0,0,0-3.235,2v17.894a2.237,2.237,0,0,0,3.235,2l17.894-8.947A2.237,2.237,0,0,0,1901.239,2419.236Zm-17.894,5.327v-10.654l10.654,5.327Zm0,0" transform="translate(-1838.61 -2387.922)" fill="#fff"/>
          </g>
        </g>
      </g>
    </g>
    <g id="Elipse_14" data-name="Elipse 14" transform="translate(-2198 -6005.565)" fill="#989898" stroke="#fff" stroke-width="6">
      <ellipse cx="46.065" cy="46.065" rx="46.065" ry="46.065" stroke="none"/>
      <ellipse cx="46.065" cy="46.065" rx="43.065" ry="43.065" fill="none"/>
    </g>
    <g id="Rect치ngulo_231" data-name="Rect치ngulo 231" transform="translate(-2480 -5966)" fill="#fff" stroke="#fff" stroke-width="1">
      <rect width="282" height="13" stroke="none"/>
      <rect x="0.5" y="0.5" width="281" height="12" fill="none"/>
    </g>
  </g>
</svg>
