<svg xmlns="http://www.w3.org/2000/svg" xmlns:xlink="http://www.w3.org/1999/xlink" width="711.504" height="562.8" viewBox="0 0 711.504 562.8">
  <defs>
    <clipPath id="clip-path">
      <rect id="Rectángulo_228" data-name="Rectángulo 228" width="200" height="200" transform="translate(-2769 -6056)" fill="#fff"/>
    </clipPath>
  </defs>
  <g id="_3-custom-home-system" data-name="3-custom-home-system" transform="translate(3191.565 6327.13)">
    <g id="Trazado_5390" data-name="Trazado 5390" transform="translate(-2857 -6148)" fill="none">
      <path d="M188.469,0C292.558,0,376.939,85.887,376.939,191.835S292.558,383.67,188.469,383.67,0,297.783,0,191.835,84.381,0,188.469,0Z" stroke="none"/>
      <path d="M 188.4694366455078 19.99996948242188 C 95.57504272460938 19.99996948242188 19.99996948242188 97.0848388671875 19.99996948242188 191.8349609375 C 19.99996948242188 286.5850830078125 95.57504272460938 363.6698913574219 188.4694366455078 363.6698913574219 C 281.36376953125 363.6698913574219 356.9388427734375 286.5850830078125 356.9388427734375 191.8349609375 C 356.9388427734375 97.0848388671875 281.36376953125 19.99996948242188 188.4694366455078 19.99996948242188 M 188.4694366455078 -3.0517578125e-05 C 292.5582275390625 -3.0517578125e-05 376.9388427734375 85.88742065429688 376.9388427734375 191.8349609375 C 376.9388427734375 297.7825012207031 292.5582275390625 383.6698913574219 188.4694366455078 383.6698913574219 C 84.38064575195313 383.6698913574219 -3.0517578125e-05 297.7825012207031 -3.0517578125e-05 191.8349609375 C -3.0517578125e-05 85.88742065429688 84.38064575195313 -3.0517578125e-05 188.4694366455078 -3.0517578125e-05 Z" stroke="none" fill="#fff"/>
    </g>
    <g id="Elipse_14" data-name="Elipse 14" transform="translate(-3191.565 -6327.13)" fill="#989898" stroke="#fff" stroke-width="6">
      <ellipse cx="46.065" cy="46.065" rx="46.065" ry="46.065" stroke="none"/>
      <ellipse cx="46.065" cy="46.065" rx="43.065" ry="43.065" fill="none"/>
    </g>
    <g id="Rectángulo_142" data-name="Rectángulo 142" transform="translate(-3139 -5966)" fill="#fff" stroke="#fff" stroke-width="1">
      <rect width="282" height="13" stroke="none"/>
      <rect x="0.5" y="0.5" width="281" height="12" fill="none"/>
    </g>
    <g id="Rectángulo_226" data-name="Rectángulo 226" transform="translate(-3139 -6235) rotate(90)" fill="#fff" stroke="#fff" stroke-width="1">
      <rect width="282" height="13" stroke="none"/>
      <rect x="0.5" y="0.5" width="281" height="12" fill="none"/>
    </g>
    <g id="Enmascarar_grupo_13" data-name="Enmascarar grupo 13" transform="translate(0)" clip-path="url(#clip-path)">
      <g id="_3-custom-home-system-2" data-name="3-custom-home-system" transform="translate(-2768.977 -6052.763)">
        <path id="Trazado_5348" data-name="Trazado 5348" d="M-4195.06-4232.643v-22.9h-12.776a40.07,40.07,0,0,0-4.287-11.513l9.79-9.8-16.193-16.193-9.79,9.8q-2.132-1.034-4.35-2.061-1.724-.784-3.409-1.568v-14.571h-22.9v14.61q-1.685.738-3.409,1.568-2.219,1.019-4.35,2.062l-9.8-9.8-16.186,16.193,9.79,9.8a40.081,40.081,0,0,0-4.28,11.514h-12.776v22.9h14.61a10.826,10.826,0,0,1,1.137,1.395,11.4,11.4,0,0,1,1.317,2.6l-9.79,9.8,16.185,16.193,9.8-9.8a39.71,39.71,0,0,0,7.759,3.214v12.721h22.895V-4209.2a39.728,39.728,0,0,0,7.76-3.213l9.79,9.8,16.193-16.193-9.79-9.8a11.4,11.4,0,0,1,1.317-2.6,10.741,10.741,0,0,1,1.137-1.395Zm-52.459.259a16.93,16.93,0,0,1-16.93-16.93,16.93,16.93,0,0,1,16.93-16.93,16.93,16.93,0,0,1,16.93,16.93,16.93,16.93,0,0,1-16.937,16.93Z" transform="translate(4387.198 4382.213)" fill="none" stroke="#fff" stroke-miterlimit="10" stroke-width="15.676"/>
        <g id="Grupo_1672" data-name="Grupo 1672">
          <g id="Grupo_73" data-name="Grupo 73">
            <path id="Trazado_43" data-name="Trazado 43" d="M-4367.047-4234.9h-30.662l-.11-43.649-.125-51.558,11.373-8.692,62.7-47.913,29.172,22.338,19.493,14.892c6.983-1.748,13.99-3.041,20.755-4.06l-69.413-53.165-89.752,68.566q.141,59.568.3,119.137h45.867Q-4367.235-4226.913-4367.047-4234.9Z" transform="translate(4413.589 4406.66)" fill="#fff"/>
          </g>
        </g>
      </g>
    </g>
  </g>
</svg>
