<svg xmlns="http://www.w3.org/2000/svg" xmlns:xlink="http://www.w3.org/1999/xlink" width="751.13" height="383.67" viewBox="0 0 751.13 383.67">
  <defs>
    <clipPath id="clip-path">
      <rect id="Rectángulo_232" data-name="Rectángulo 232" width="200" height="200" transform="translate(-2769 -6056)" fill="#fff"/>
    </clipPath>
  </defs>
  <g id="_5-smart-lock-icon" data-name="5-smart-lock-icon" transform="translate(2857 6148)">
    <g id="Trazado_5390" data-name="Trazado 5390" transform="translate(-2857 -6148)" fill="none">
      <path d="M188.469,0C292.558,0,376.939,85.887,376.939,191.835S292.558,383.67,188.469,383.67,0,297.783,0,191.835,84.381,0,188.469,0Z" stroke="none"/>
      <path d="M 188.4694366455078 19.99996948242188 C 95.57504272460938 19.99996948242188 19.99996948242188 97.0848388671875 19.99996948242188 191.8349609375 C 19.99996948242188 286.5850830078125 95.57504272460938 363.6698913574219 188.4694366455078 363.6698913574219 C 281.36376953125 363.6698913574219 356.9388427734375 286.5850830078125 356.9388427734375 191.8349609375 C 356.9388427734375 97.0848388671875 281.36376953125 19.99996948242188 188.4694366455078 19.99996948242188 M 188.4694366455078 -3.0517578125e-05 C 292.5582275390625 -3.0517578125e-05 376.9388427734375 85.88742065429688 376.9388427734375 191.8349609375 C 376.9388427734375 297.7825012207031 292.5582275390625 383.6698913574219 188.4694366455078 383.6698913574219 C 84.38064575195313 383.6698913574219 -3.0517578125e-05 297.7825012207031 -3.0517578125e-05 191.8349609375 C -3.0517578125e-05 85.88742065429688 84.38064575195313 -3.0517578125e-05 188.4694366455078 -3.0517578125e-05 Z" stroke="none" fill="#fff"/>
    </g>
    <g id="Elipse_14" data-name="Elipse 14" transform="translate(-2198 -6005.565)" fill="#989898" stroke="#fff" stroke-width="6">
      <ellipse cx="46.065" cy="46.065" rx="46.065" ry="46.065" stroke="none"/>
      <ellipse cx="46.065" cy="46.065" rx="43.065" ry="43.065" fill="none"/>
    </g>
    <g id="Rectángulo_231" data-name="Rectángulo 231" transform="translate(-2480 -5966)" fill="#fff" stroke="#fff" stroke-width="1">
      <rect width="282" height="13" stroke="none"/>
      <rect x="0.5" y="0.5" width="281" height="12" fill="none"/>
    </g>
    <g id="Enmascarar_grupo_15" data-name="Enmascarar grupo 15" transform="translate(0)" clip-path="url(#clip-path)">
      <g id="_5-smart-lock-icon-2" data-name="5-smart-lock-icon" transform="translate(-2768.977 -6051.83)">
        <g id="Grupo_53" data-name="Grupo 53">
          <g id="Grupo_52" data-name="Grupo 52">
            <path id="Trazado_11" data-name="Trazado 11" d="M-5639.829-4272.958h-30.5l-.111-43.435-.126-51.3,11.313-8.641,62.417-47.687,29.03,22.231,19.4,14.855c6.957-1.739,13.922-3.021,20.658-4.04l-69.081-52.9-89.335,68.227q.143,59.293.285,118.587h45.648Q-5639.988-4265.013-5639.829-4272.958Z" transform="translate(5686.141 4443.881)" fill="#fff"/>
          </g>
        </g>
        <g id="Grupo_54" data-name="Grupo 54" transform="translate(84.205 81.619)">
          <path id="Trazado_12" data-name="Trazado 12" d="M-5549.213-4296.573a36.484,36.484,0,0,1,9.1-27.313,36.484,36.484,0,0,1,26.068-12.215,36.524,36.524,0,0,1,33.719,38.8" transform="translate(5568.717 4336.102)" fill="none" stroke="#fff" stroke-miterlimit="10" stroke-width="15.812"/>
          <rect id="Rectángulo_63" data-name="Rectángulo 63" width="107.867" height="64.25" transform="translate(0 37.877)" fill="none" stroke="#fff" stroke-miterlimit="10" stroke-width="15.812"/>
          <path id="Unión_1" data-name="Unión 1" d="M4.024,22.539V14.721a7.866,7.866,0,1,1,7.692,0v7.811Z" transform="translate(45.703 59.791)" fill="#fff" stroke="rgba(0,0,0,0)" stroke-miterlimit="10" stroke-width="7.906"/>
        </g>
      </g>
    </g>
  </g>
</svg>
