<svg xmlns="http://www.w3.org/2000/svg" xmlns:xlink="http://www.w3.org/1999/xlink" width="698.504" height="569.17" viewBox="0 0 698.504 569.17">
  <defs>
    <clipPath id="clip-path">
      <rect id="Rectángulo_229" data-name="Rectángulo 229" width="200" height="200" transform="translate(-2769 -6056)" fill="#fff"/>
    </clipPath>
  </defs>
  <g id="_6-security-system-icon" data-name="6-security-system-icon" transform="translate(2872.565 6333.63)">
    <g id="Trazado_5390" data-name="Trazado 5390" transform="translate(-2872.565 -6148.13)" fill="none">
      <path d="M188.469,0C292.558,0,376.939,85.887,376.939,191.835S292.558,383.67,188.469,383.67,0,297.783,0,191.835,84.381,0,188.469,0Z" stroke="none"/>
      <path d="M 188.4694366455078 19.99996948242188 C 95.57504272460938 19.99996948242188 19.99996948242188 97.0848388671875 19.99996948242188 191.8349609375 C 19.99996948242188 286.5850830078125 95.57504272460938 363.6698913574219 188.4694366455078 363.6698913574219 C 281.36376953125 363.6698913574219 356.9388427734375 286.5850830078125 356.9388427734375 191.8349609375 C 356.9388427734375 97.0848388671875 281.36376953125 19.99996948242188 188.4694366455078 19.99996948242188 M 188.4694366455078 -3.0517578125e-05 C 292.5582275390625 -3.0517578125e-05 376.9388427734375 85.88742065429688 376.9388427734375 191.8349609375 C 376.9388427734375 297.7825012207031 292.5582275390625 383.6698913574219 188.4694366455078 383.6698913574219 C 84.38064575195313 383.6698913574219 -3.0517578125e-05 297.7825012207031 -3.0517578125e-05 191.8349609375 C -3.0517578125e-05 85.88742065429688 84.38064575195313 -3.0517578125e-05 188.4694366455078 -3.0517578125e-05 Z" stroke="none" fill="#fff"/>
    </g>
    <g id="Elipse_14" data-name="Elipse 14" transform="translate(-2266.192 -6333.63)" fill="#989898" stroke="#fff" stroke-width="6">
      <ellipse cx="46.065" cy="46.065" rx="46.065" ry="46.065" stroke="none"/>
      <ellipse cx="46.065" cy="46.065" rx="43.065" ry="43.065" fill="none"/>
    </g>
    <g id="Rectángulo_230" data-name="Rectángulo 230" transform="translate(-2495.626 -5966)" fill="#fff" stroke="#fff" stroke-width="1">
      <rect width="282" height="13" stroke="none"/>
      <rect x="0.5" y="0.5" width="281" height="12" fill="none"/>
    </g>
    <g id="Rectángulo_226" data-name="Rectángulo 226" transform="translate(-2213.626 -6241.5) rotate(90)" fill="#fff" stroke="#fff" stroke-width="1">
      <rect width="282" height="13" stroke="none"/>
      <rect x="0.5" y="0.5" width="281" height="12" fill="none"/>
    </g>
    <g id="Enmascarar_grupo_14" data-name="Enmascarar grupo 14" transform="translate(-14.565 -0.13)" clip-path="url(#clip-path)">
      <g id="_6-security-system-icon-2" data-name="6-security-system-icon" transform="translate(-2760.206 -6055.968)">
        <g id="Grupo_1680" data-name="Grupo 1680">
          <g id="Fase_Iconos" data-name="Fase Iconos">
            <g id="Grupo_70" data-name="Grupo 70">
              <g id="Grupo_69" data-name="Grupo 69">
                <path id="Trazado_39" data-name="Trazado 39" d="M-4325.853-4512.148h-32.669l-.117-46.507-.133-54.933,12.109-9.253,66.809-51.05,31.083,23.8,20.769,15.867c7.441-1.862,14.9-3.24,22.114-4.326l-73.957-56.646-95.628,73.063.309,126.937h48.87Q-4326.045-4503.638-4325.853-4512.148Z" transform="translate(4375.424 4695.162)" fill="#fff"/>
              </g>
            </g>
          </g>
        </g>
        <g id="Grupo_1682" data-name="Grupo 1682" transform="translate(54.516 86.509)">
          <g id="Grupo_1653" data-name="Grupo 1653">
            <path id="Trazado_5347" data-name="Trazado 5347" d="M1.328,577.426l72.3-41.355a13.145,13.145,0,0,1,16.886,3.791l14,20.043a11.641,11.641,0,0,1-3.716,16.752L85.565,585.41l2.756,3.674a11.332,11.332,0,0,1-.134,13.888l4.059,6.1h19.717v-8.025a2.639,2.639,0,0,1,2.664-2.639h10.639a2.639,2.639,0,0,1,2.664,2.639v26.723a2.664,2.664,0,0,1-2.664,2.672H114.618a2.664,2.664,0,0,1-2.664-2.672v-2.664H92.246a15.959,15.959,0,0,1-13.312-7.132l-4.368-6.564a12.074,12.074,0,0,1-2.555.351,12.209,12.209,0,0,1-10.422-5.9l-2.931-4.885-22.69,13.111a2.664,2.664,0,0,1-3.716-1.119l-1.971-3.958c-.326,0-.635.092-.969.092A18.69,18.69,0,0,1,10.648,590.42a17.211,17.211,0,0,1,.418-3.491l-9.6-4.81a2.672,2.672,0,0,1-.134-4.7Zm115.963,47.685h5.328V603.782h-5.328ZM83.369,615.039a10.639,10.639,0,0,0,8.869,4.752h19.717v-5.336H92.246a5.311,5.311,0,0,1-4.434-2.372l-3.691-5.537-4.576,2.748ZM66.157,603.147a7.015,7.015,0,0,0,9.353,2.338l6.764-4.059a6.23,6.23,0,0,0,1.779-9.069l-3.14-4.175L63.276,598.346Zm-30.406,4.919,62.4-36.018a6.3,6.3,0,0,0,2-9.061l-6.681-9.562L27.5,591.489Zm-19.767-17.6a13.3,13.3,0,0,0,11.575,13.153L21.98,592.441l-5.921-2.965C16.042,589.811,15.984,590.145,15.984,590.462Zm7.908-3.031,66.5-38.365L86.15,543a7.516,7.516,0,0,0-9.871-2.213L8.3,579.639Z" transform="translate(0.017 -534.468)" fill="#fff"/>
            <circle id="Elipse_11" data-name="Elipse 11" cx="2.664" cy="2.664" r="2.664" transform="translate(37.321 58.65)" fill="#fff"/>
          </g>
        </g>
      </g>
    </g>
  </g>
</svg>
