<svg xmlns="http://www.w3.org/2000/svg" xmlns:xlink="http://www.w3.org/1999/xlink" width="711.504" height="562.8" viewBox="0 0 711.504 562.8">
  <defs>
    <clipPath id="clip-path">
      <rect id="Rectángulo_227" data-name="Rectángulo 227" width="200" height="200" transform="translate(-2769 -6056)" fill="#fff"/>
    </clipPath>
  </defs>
  <g id="_8-touch-voice-icon" data-name="8-touch-voice-icon" transform="translate(3191.565 6327.13)">
    <g id="Trazado_5390" data-name="Trazado 5390" transform="translate(-2857 -6148)" fill="none">
      <path d="M188.469,0C292.558,0,376.939,85.887,376.939,191.835S292.558,383.67,188.469,383.67,0,297.783,0,191.835,84.381,0,188.469,0Z" stroke="none"/>
      <path d="M 188.4694366455078 19.99996948242188 C 95.57504272460938 19.99996948242188 19.99996948242188 97.0848388671875 19.99996948242188 191.8349609375 C 19.99996948242188 286.5850830078125 95.57504272460938 363.6698913574219 188.4694366455078 363.6698913574219 C 281.36376953125 363.6698913574219 356.9388427734375 286.5850830078125 356.9388427734375 191.8349609375 C 356.9388427734375 97.0848388671875 281.36376953125 19.99996948242188 188.4694366455078 19.99996948242188 M 188.4694366455078 -3.0517578125e-05 C 292.5582275390625 -3.0517578125e-05 376.9388427734375 85.88742065429688 376.9388427734375 191.8349609375 C 376.9388427734375 297.7825012207031 292.5582275390625 383.6698913574219 188.4694366455078 383.6698913574219 C 84.38064575195313 383.6698913574219 -3.0517578125e-05 297.7825012207031 -3.0517578125e-05 191.8349609375 C -3.0517578125e-05 85.88742065429688 84.38064575195313 -3.0517578125e-05 188.4694366455078 -3.0517578125e-05 Z" stroke="none" fill="#fff"/>
    </g>
    <g id="Elipse_14" data-name="Elipse 14" transform="translate(-3191.565 -6327.13)" fill="#989898" stroke="#fff" stroke-width="6">
      <ellipse cx="46.065" cy="46.065" rx="46.065" ry="46.065" stroke="none"/>
      <ellipse cx="46.065" cy="46.065" rx="43.065" ry="43.065" fill="none"/>
    </g>
    <g id="Rectángulo_142" data-name="Rectángulo 142" transform="translate(-3139 -5966)" fill="#fff" stroke="#fff" stroke-width="1">
      <rect width="282" height="13" stroke="none"/>
      <rect x="0.5" y="0.5" width="281" height="12" fill="none"/>
    </g>
    <g id="Rectángulo_226" data-name="Rectángulo 226" transform="translate(-3139 -6235) rotate(90)" fill="#fff" stroke="#fff" stroke-width="1">
      <rect width="282" height="13" stroke="none"/>
      <rect x="0.5" y="0.5" width="281" height="12" fill="none"/>
    </g>
    <g id="Enmascarar_grupo_12" data-name="Enmascarar grupo 12" transform="translate(1.435 -15)" clip-path="url(#clip-path)">
      <g id="_8-touch-voice-icon-2" data-name="8-touch-voice-icon" transform="translate(-2762.344 -6055.968)">
        <g id="Fase_Iconos" data-name="Fase Iconos">
          <g id="Grupo_70" data-name="Grupo 70">
            <g id="Grupo_69" data-name="Grupo 69">
              <path id="Trazado_39" data-name="Trazado 39" d="M-4325.853-4512.148h-32.669l-.117-46.507-.133-54.933,12.109-9.253,66.809-51.05,31.083,23.8,20.769,15.867c7.441-1.862,14.9-3.24,22.114-4.326l-73.957-56.646-95.628,73.063.309,126.937h48.87Q-4326.045-4503.638-4325.853-4512.148Z" transform="translate(4375.424 4695.162)" fill="#fff"/>
            </g>
          </g>
        </g>
        <g id="Grupo_1637" data-name="Grupo 1637" transform="translate(73.698 76.003)">
          <path id="Trazado_5321" data-name="Trazado 5321" d="M6309.465,1989.04a9.186,9.186,0,0,1,15.208-1.487,8.185,8.185,0,0,1,7.073-4.96,10.221,10.221,0,0,1,8.175,3.341,8.609,8.609,0,0,1,2.614-3.341,8.918,8.918,0,0,1,9.763-.526,11.108,11.108,0,0,1,4.376,4.084c3.341,5.144,6.681,10.255,9.9,15.458a33.317,33.317,0,0,1,4.869,15.032,37.127,37.127,0,0,1-7.758,26.256,38.339,38.339,0,0,1-15.867,12.168,37.754,37.754,0,0,1-17.22,2.973,36.439,36.439,0,0,1-17.087-5.345,34.044,34.044,0,0,1-8.727-7.516,50.325,50.325,0,0,0-9.136-8.351c-2.814-2.1-5.545-4.309-8.351-6.389a6.438,6.438,0,0,1-1.261-9.27,8.108,8.108,0,0,1,6.255-3.29,22.547,22.547,0,0,1,10.021,1.754c2.046.785,4.008,1.77,6,2.672l.509.225c-.2-.351-.317-.568-.451-.777l-24.352-37.705a10.74,10.74,0,0,1-1.486-9.411,8.525,8.525,0,0,1,10.856-5.6,10.534,10.534,0,0,1,5.847,4.259c3.1,4.685,6.121,9.42,9.186,14.13Zm22.339,64.22a34.064,34.064,0,0,0,34.8-31.125,28.821,28.821,0,0,0-4.276-18.13c-3.224-5.253-6.681-10.38-10.021-15.558a5.844,5.844,0,0,0-3.232-2.505,3.708,3.708,0,0,0-5.085,3.132,6.085,6.085,0,0,0,1,4.317c.585.927,1.2,1.837,1.779,2.764a2.439,2.439,0,1,1-4.176,2.506q-2.671-4.109-5.319-8.234a6.515,6.515,0,0,0-3.341-2.781,3.758,3.758,0,0,0-5.278,3.082,6.014,6.014,0,0,0,1.01,4.317c1,1.578,2.021,3.132,3.023,4.7a2.379,2.379,0,0,1,.134,2.555,2.455,2.455,0,0,1-4.284,0c-2.239-3.441-4.452-6.89-6.681-10.339a6.248,6.248,0,0,0-3.574-2.747,3.717,3.717,0,0,0-4.9,3.106,6.113,6.113,0,0,0,1.028,4.443q3.332,5.173,6.681,10.347a2.43,2.43,0,0,1-.61,3.524,2.506,2.506,0,0,1-3.516-.952l-9.854-15.257-11.491-17.8a7.029,7.029,0,0,0-2.506-2.505,4.176,4.176,0,0,0-4.493-.092,3.934,3.934,0,0,0-1.67,4.175,8.05,8.05,0,0,0,1.078,2.99q13.7,21.32,27.475,42.59c1.369,2.121,2.747,4.234,4.1,6.363a2.4,2.4,0,0,1-.143,2.881,2.263,2.263,0,0,1-2.5.76,5.828,5.828,0,0,1-1.487-.935,49.716,49.716,0,0,0-16.076-9.186,15.743,15.743,0,0,0-6.9-1.052,3.293,3.293,0,0,0-2.664,1.578,1.469,1.469,0,0,0,.426,2.271c2.647,2.029,5.27,4.092,7.951,6.08a65.248,65.248,0,0,1,10.681,9.813,30.532,30.532,0,0,0,22.891,10.906Z" transform="translate(-6258.557 -1945.064)" fill="#fff"/>
          <path id="Trazado_5322" data-name="Trazado 5322" d="M5988.55,1642.555h-4.443c-.5,0-.417-.367-.417-.651a24.362,24.362,0,0,0-1.119-6.99,27.066,27.066,0,0,0-44.979-11.441,25.885,25.885,0,0,0-7.908,16.978,27.091,27.091,0,0,0,27.124,29.229.752.752,0,0,1,.56.208c.96,1.437,1.888,2.89,2.84,4.359a31.884,31.884,0,1,1,28.353-31.734Z" transform="translate(-5924.665 -1610.679)" fill="#fff"/>
          <path id="Trazado_5323" data-name="Trazado 5323" d="M6118.492,1782.6h-4.6c-.292-1.595-.459-3.173-.835-4.677a17.22,17.22,0,1,0-24.084,20.26,3.515,3.515,0,0,1,1.578,1.386c1.037,1.67,2.122,3.34,3.216,5.011a22.063,22.063,0,1,1,24.769-21.971Z" transform="translate(-6064.553 -1750.768)" fill="#fff"/>
        </g>
      </g>
    </g>
  </g>
</svg>
